<svg xmlns="http://www.w3.org/2000/svg" version="1.1">
<g id="dubenale">
<path d="M380 280 L380 265
" fill="#000000" stroke="#FF0000"/>
<path d="M380 265 L380 250
" fill="#000000" stroke="#00FF00"/>
<path d="M380 250 L395 250
" fill="#000000" stroke="#00FF00"/>
<path d="M395 250 L410 250
" fill="#000000" stroke="#0000FF"/>
<path d="M410 250 L425 250
" fill="#000000" stroke="#0000FF"/>
<path d="M425 250 L425 265
" fill="#000000" stroke="#0000FF"/>
<path d="M425 265 L425 280
" fill="#000000" stroke="#0000FF"/>
<path d="M425 280 L425 295
" fill="#000000" stroke="#FF0000"/>
<path d="M425 295 L425 310
" fill="#000000" stroke="#00FF00"/>
<path d="M425 310 L410 310
" fill="#000000" stroke="#00FF00"/>
<path d="M410 310 L395 310
" fill="#000000" stroke="#0000FF"/>
<path d="M395 310 L380 310
" fill="#000000" stroke="#0000FF"/>
<path d="M380 310 L380 295
" fill="#000000" stroke="#0000FF"/>
<path d="M380 295 L380 280
" fill="#000000" stroke="#0000FF"/>
<path d="M380 280 L395 280
" fill="#000000" stroke="#FF0000"/>
<path d="M395 280 L410 280
" fill="#000000" stroke="#00FF00"/>
<path d="M410 280 L410 295
" fill="#000000" stroke="#00FF00"/>
<path d="M410 295 L410 310
" fill="#000000" stroke="#0000FF"/>
<path d="M410 310 L410 325
" fill="#000000" stroke="#0000FF"/>
<path d="M410 325 L395 325
" fill="#000000" stroke="#0000FF"/>
<path d="M395 325 L380 325
" fill="#000000" stroke="#0000FF"/>
<path d="M380 325 L365 325
" fill="#000000" stroke="#FF0000"/>
<path d="M365 325 L350 325
" fill="#000000" stroke="#00FF00"/>
<path d="M350 325 L350 310
" fill="#000000" stroke="#00FF00"/>
<path d="M350 310 L350 295
" fill="#000000" stroke="#0000FF"/>
<path d="M350 295 L350 280
" fill="#000000" stroke="#0000FF"/>
<path d="M350 280 L365 280
" fill="#000000" stroke="#0000FF"/>
<path d="M365 280 L380 280
" fill="#000000" stroke="#0000FF"/>
<path d="M380 280 L395 280
" fill="#000000" stroke="#FF0000"/>
<path d="M395 280 L410 280
" fill="#000000" stroke="#00FF00"/>
<path d="M410 280 L410 295
" fill="#000000" stroke="#00FF00"/>
<path d="M410 295 L410 310
" fill="#000000" stroke="#0000FF"/>
<path d="M410 310 L410 325
" fill="#000000" stroke="#0000FF"/>
<path d="M410 325 L395 325
" fill="#000000" stroke="#0000FF"/>
<path d="M395 325 L380 325
" fill="#000000" stroke="#0000FF"/>
<path d="M380 325 L380 310
" fill="#000000" stroke="#FF0000"/>
<path d="M380 310 L380 295
" fill="#000000" stroke="#00FF00"/>
<path d="M380 295 L395 294.99999999999994
" fill="#000000" stroke="#00FF00"/>
<path d="M395 294.99999999999994 L410 294.9999999999999
" fill="#000000" stroke="#0000FF"/>
<path d="M410 294.9999999999999 L425 294.99999999999983
" fill="#000000" stroke="#0000FF"/>
<path d="M425 294.99999999999983 L425 309.99999999999983
" fill="#000000" stroke="#0000FF"/>
<path d="M425 309.99999999999983 L425 324.99999999999983
" fill="#000000" stroke="#0000FF"/>
<path d="M425 324.99999999999983 L425 339.99999999999983
" fill="#000000" stroke="#FF0000"/>
<path d="M425 339.99999999999983 L425 354.99999999999983
" fill="#000000" stroke="#00FF00"/>
<path d="M425 354.99999999999983 L410 354.99999999999983
" fill="#000000" stroke="#00FF00"/>
<path d="M410 354.99999999999983 L395 354.99999999999983
" fill="#000000" stroke="#0000FF"/>
<path d="M395 354.99999999999983 L380 354.99999999999983
" fill="#000000" stroke="#0000FF"/>
<path d="M380 354.99999999999983 L380.00000000000005 339.99999999999983
" fill="#000000" stroke="#0000FF"/>
<path d="M380.00000000000005 339.99999999999983 L380.0000000000001 324.99999999999983
" fill="#000000" stroke="#0000FF"/>
<path d="M380.0000000000001 324.99999999999983 L380.00000000000017 309.99999999999983
" fill="#000000" stroke="#FF0000"/>
<path d="M380.00000000000017 309.99999999999983 L380.0000000000002 294.99999999999983
" fill="#000000" stroke="#00FF00"/>
<path d="M380.0000000000002 294.99999999999983 L395.0000000000002 294.9999999999999
" fill="#000000" stroke="#00FF00"/>
<path d="M395.0000000000002 294.9999999999999 L410.0000000000002 294.99999999999994
" fill="#000000" stroke="#0000FF"/>
<path d="M410.0000000000002 294.99999999999994 L425.0000000000002 295
" fill="#000000" stroke="#0000FF"/>
<path d="M425.0000000000002 295 L425.0000000000001 310
" fill="#000000" stroke="#0000FF"/>
<path d="M425.0000000000001 310 L425 325
" fill="#000000" stroke="#0000FF"/>
<path d="M425 325 L424.9999999999999 340
" fill="#000000" stroke="#FF0000"/>
<path d="M424.9999999999999 340 L424.9999999999998 355
" fill="#000000" stroke="#00FF00"/>
<path d="M424.9999999999998 355 L409.9999999999998 354.9999999999999
" fill="#000000" stroke="#00FF00"/>
<path d="M409.9999999999998 354.9999999999999 L394.9999999999998 354.9999999999998
" fill="#000000" stroke="#0000FF"/>
<path d="M394.9999999999998 354.9999999999998 L379.9999999999998 354.99999999999966
" fill="#000000" stroke="#0000FF"/>
<path d="M379.9999999999998 354.99999999999966 L379.99999999999994 339.99999999999966
" fill="#000000" stroke="#0000FF"/>
<path d="M379.99999999999994 339.99999999999966 L380.0000000000001 324.99999999999966
" fill="#000000" stroke="#0000FF"/>
<path d="M380.0000000000001 324.99999999999966 L395.0000000000001 324.99999999999983
" fill="#000000" stroke="#FF0000"/>
<path d="M395.0000000000001 324.99999999999983 L410.0000000000001 325
" fill="#000000" stroke="#00FF00"/>
<path d="M410.0000000000001 325 L409.99999999999994 340
" fill="#000000" stroke="#00FF00"/>
<path d="M409.99999999999994 340 L409.9999999999998 355
" fill="#000000" stroke="#0000FF"/>
<path d="M409.9999999999998 355 L409.9999999999996 370
" fill="#000000" stroke="#0000FF"/>
<path d="M409.9999999999996 370 L394.9999999999996 369.9999999999998
" fill="#000000" stroke="#0000FF"/>
<path d="M394.9999999999996 369.9999999999998 L379.9999999999996 369.99999999999954
" fill="#000000" stroke="#0000FF"/>
<path d="M379.9999999999996 369.99999999999954 L364.9999999999996 369.9999999999993
" fill="#000000" stroke="#FF0000"/>
<path d="M364.9999999999996 369.9999999999993 L349.9999999999996 369.9999999999991
" fill="#000000" stroke="#00FF00"/>
<path d="M349.9999999999996 369.9999999999991 L349.99999999999983 354.9999999999991
" fill="#000000" stroke="#00FF00"/>
<path d="M349.99999999999983 354.9999999999991 L350.00000000000005 339.9999999999991
" fill="#000000" stroke="#0000FF"/>
<path d="M350.00000000000005 339.9999999999991 L350.0000000000003 324.9999999999991
" fill="#000000" stroke="#0000FF"/>
<path d="M350.0000000000003 324.9999999999991 L365.0000000000003 324.9999999999994
" fill="#000000" stroke="#0000FF"/>
<path d="M365.0000000000003 324.9999999999994 L380.0000000000003 324.99999999999966
" fill="#000000" stroke="#0000FF"/>
<path d="M380.0000000000003 324.99999999999966 L395.0000000000003 324.99999999999994
" fill="#000000" stroke="#FF0000"/>
<path d="M395.0000000000003 324.99999999999994 L410.0000000000003 325.0000000000002
" fill="#000000" stroke="#00FF00"/>
<path d="M410.0000000000003 325.0000000000002 L410 340.0000000000002
" fill="#000000" stroke="#00FF00"/>
<path d="M410 340.0000000000002 L409.9999999999997 355.0000000000002
" fill="#000000" stroke="#0000FF"/>
<path d="M409.9999999999997 355.0000000000002 L409.99999999999943 370.0000000000002
" fill="#000000" stroke="#0000FF"/>
<path d="M409.99999999999943 370.0000000000002 L394.99999999999943 369.9999999999999
" fill="#000000" stroke="#0000FF"/>
<path d="M394.99999999999943 369.9999999999999 L379.99999999999943 369.99999999999954
" fill="#000000" stroke="#0000FF"/>
<path d="M379.99999999999943 369.99999999999954 L379.9999999999998 354.99999999999954
" fill="#000000" stroke="#FF0000"/>
<path d="M379.9999999999998 354.99999999999954 L380.0000000000001 339.99999999999954
" fill="#000000" stroke="#00FF00"/>
<path d="M380.0000000000001 339.99999999999954 L395.0000000000001 339.99999999999994
" fill="#000000" stroke="#00FF00"/>
<path d="M395.0000000000001 339.99999999999994 L410.0000000000001 340.00000000000034
" fill="#000000" stroke="#0000FF"/>
<path d="M410.0000000000001 340.00000000000034 L425.0000000000001 340.00000000000074
" fill="#000000" stroke="#0000FF"/>
<path d="M425.0000000000001 340.00000000000074 L424.9999999999997 355.00000000000074
" fill="#000000" stroke="#0000FF"/>
<path d="M424.9999999999997 355.00000000000074 L424.9999999999993 370.00000000000074
" fill="#000000" stroke="#0000FF"/>
<path d="M424.9999999999993 370.00000000000074 L424.9999999999989 385.00000000000074
" fill="#000000" stroke="#FF0000"/>
<path d="M424.9999999999989 385.00000000000074 L424.9999999999985 400.00000000000074
" fill="#000000" stroke="#00FF00"/>
<path d="M424.9999999999985 400.00000000000074 L409.9999999999985 400.0000000000003
" fill="#000000" stroke="#00FF00"/>
<path d="M409.9999999999985 400.0000000000003 L394.9999999999985 399.99999999999983
" fill="#000000" stroke="#0000FF"/>
<path d="M394.9999999999985 399.99999999999983 L379.9999999999985 399.9999999999994
" fill="#000000" stroke="#0000FF"/>
<path d="M379.9999999999985 399.9999999999994 L379.999999999999 384.9999999999994
" fill="#000000" stroke="#0000FF"/>
<path d="M379.999999999999 384.9999999999994 L379.99999999999943 369.9999999999994
" fill="#000000" stroke="#0000FF"/>
<path d="M379.99999999999943 369.9999999999994 L394.99999999999943 369.99999999999983
" fill="#000000" stroke="#FF0000"/>
<path d="M394.99999999999943 369.99999999999983 L409.99999999999943 370.0000000000003
" fill="#000000" stroke="#00FF00"/>
<path d="M409.99999999999943 370.0000000000003 L409.9999999999989 385.0000000000003
" fill="#000000" stroke="#00FF00"/>
<path d="M409.9999999999989 385.0000000000003 L409.9999999999984 400.0000000000003
" fill="#000000" stroke="#0000FF"/>
<path d="M409.9999999999984 400.0000000000003 L409.9999999999979 415.0000000000003
" fill="#000000" stroke="#0000FF"/>
<path d="M409.9999999999979 415.0000000000003 L394.9999999999979 414.9999999999998
" fill="#000000" stroke="#0000FF"/>
<path d="M394.9999999999979 414.9999999999998 L379.9999999999979 414.99999999999926
" fill="#000000" stroke="#0000FF"/>
<path d="M379.9999999999979 414.99999999999926 L364.9999999999979 414.99999999999875
" fill="#000000" stroke="#FF0000"/>
<path d="M364.9999999999979 414.99999999999875 L349.9999999999979 414.99999999999823
" fill="#000000" stroke="#00FF00"/>
<path d="M349.9999999999979 414.99999999999823 L349.99999999999846 399.99999999999823
" fill="#000000" stroke="#00FF00"/>
<path d="M349.99999999999846 399.99999999999823 L349.99999999999903 384.99999999999823
" fill="#000000" stroke="#0000FF"/>
<path d="M349.99999999999903 384.99999999999823 L349.9999999999996 369.99999999999823
" fill="#000000" stroke="#0000FF"/>
<path d="M349.9999999999996 369.99999999999823 L364.9999999999996 369.9999999999988
" fill="#000000" stroke="#0000FF"/>
<path d="M364.9999999999996 369.9999999999988 L379.9999999999996 369.9999999999994
" fill="#000000" stroke="#0000FF"/>
<path d="M379.9999999999996 369.9999999999994 L379.999999999999 384.9999999999994
" fill="#000000" stroke="#FF0000"/>
<path d="M379.999999999999 384.9999999999994 L379.99999999999835 399.9999999999994
" fill="#000000" stroke="#00FF00"/>
<path d="M379.99999999999835 399.9999999999994 L364.99999999999835 399.99999999999875
" fill="#000000" stroke="#00FF00"/>
<path d="M364.99999999999835 399.99999999999875 L349.99999999999835 399.9999999999981
" fill="#000000" stroke="#0000FF"/>
<path d="M349.99999999999835 399.9999999999981 L334.99999999999835 399.9999999999975
" fill="#000000" stroke="#0000FF"/>
<path d="M334.99999999999835 399.9999999999975 L334.99999999999903 384.9999999999975
" fill="#000000" stroke="#0000FF"/>
<path d="M334.99999999999903 384.9999999999975 L334.9999999999997 369.9999999999975
" fill="#000000" stroke="#0000FF"/>
<path d="M334.9999999999997 369.9999999999975 L335.0000000000004 354.9999999999975
" fill="#000000" stroke="#FF0000"/>
<path d="M335.0000000000004 354.9999999999975 L335.0000000000011 339.9999999999975
" fill="#000000" stroke="#00FF00"/>
<path d="M335.0000000000011 339.9999999999975 L350.0000000000011 339.9999999999982
" fill="#000000" stroke="#00FF00"/>
<path d="M350.0000000000011 339.9999999999982 L365.0000000000011 339.99999999999886
" fill="#000000" stroke="#0000FF"/>
<path d="M365.0000000000011 339.99999999999886 L380.0000000000011 339.99999999999954
" fill="#000000" stroke="#0000FF"/>
<path d="M380.0000000000011 339.99999999999954 L380.0000000000004 354.99999999999954
" fill="#000000" stroke="#0000FF"/>
<path d="M380.0000000000004 354.99999999999954 L379.9999999999997 369.99999999999954
" fill="#000000" stroke="#0000FF"/>
<path d="M379.9999999999997 369.99999999999954 L379.99999999999903 384.99999999999954
" fill="#000000" stroke="#FF0000"/>
<path d="M379.99999999999903 384.99999999999954 L379.99999999999835 399.99999999999954
" fill="#000000" stroke="#00FF00"/>
<path d="M379.99999999999835 399.99999999999954 L364.99999999999835 399.9999999999988
" fill="#000000" stroke="#00FF00"/>
<path d="M364.99999999999835 399.9999999999988 L349.99999999999835 399.99999999999806
" fill="#000000" stroke="#0000FF"/>
<path d="M349.99999999999835 399.99999999999806 L334.99999999999835 399.9999999999973
" fill="#000000" stroke="#0000FF"/>
<path d="M334.99999999999835 399.9999999999973 L334.99999999999903 384.9999999999973
" fill="#000000" stroke="#0000FF"/>
<path d="M334.99999999999903 384.9999999999973 L334.9999999999997 369.9999999999973
" fill="#000000" stroke="#0000FF"/>
<path d="M334.9999999999997 369.9999999999973 L349.9999999999997 369.9999999999979
" fill="#000000" stroke="#FF0000"/>
<path d="M349.9999999999997 369.9999999999979 L364.9999999999997 369.99999999999846
" fill="#000000" stroke="#00FF00"/>
<path d="M364.9999999999997 369.99999999999846 L364.9999999999992 384.99999999999846
" fill="#000000" stroke="#00FF00"/>
<path d="M364.9999999999992 384.99999999999846 L364.9999999999987 399.99999999999846
" fill="#000000" stroke="#0000FF"/>
<path d="M364.9999999999987 399.99999999999846 L364.9999999999982 414.99999999999846
" fill="#000000" stroke="#0000FF"/>
<path d="M364.9999999999982 414.99999999999846 L349.9999999999982 414.99999999999806
" fill="#000000" stroke="#0000FF"/>
<path d="M349.9999999999982 414.99999999999806 L334.9999999999982 414.99999999999767
" fill="#000000" stroke="#0000FF"/>
<path d="M334.9999999999982 414.99999999999767 L319.9999999999982 414.99999999999727
" fill="#000000" stroke="#FF0000"/>
<path d="M319.9999999999982 414.99999999999727 L304.9999999999982 414.9999999999969
" fill="#000000" stroke="#00FF00"/>
<path d="M304.9999999999982 414.9999999999969 L304.9999999999985 399.9999999999969
" fill="#000000" stroke="#00FF00"/>
<path d="M304.9999999999985 399.9999999999969 L304.99999999999886 384.9999999999969
" fill="#000000" stroke="#0000FF"/>
<path d="M304.99999999999886 384.9999999999969 L304.9999999999992 369.9999999999969
" fill="#000000" stroke="#0000FF"/>
<path d="M304.9999999999992 369.9999999999969 L319.9999999999992 369.9999999999971
" fill="#000000" stroke="#0000FF"/>
<path d="M319.9999999999992 369.9999999999971 L334.9999999999992 369.9999999999973
" fill="#000000" stroke="#0000FF"/>
<path d="M334.9999999999992 369.9999999999973 L349.9999999999992 369.99999999999755
" fill="#000000" stroke="#FF0000"/>
<path d="M349.9999999999992 369.99999999999755 L364.9999999999992 369.9999999999978
" fill="#000000" stroke="#00FF00"/>
<path d="M364.9999999999992 369.9999999999978 L364.99999999999903 384.9999999999978
" fill="#000000" stroke="#00FF00"/>
<path d="M364.99999999999903 384.9999999999978 L364.99999999999886 399.9999999999978
" fill="#000000" stroke="#0000FF"/>
<path d="M364.99999999999886 399.9999999999978 L364.9999999999987 414.9999999999978
" fill="#000000" stroke="#0000FF"/>
<path d="M364.9999999999987 414.9999999999978 L349.9999999999987 414.99999999999767
" fill="#000000" stroke="#0000FF"/>
<path d="M349.9999999999987 414.99999999999767 L334.9999999999987 414.99999999999755
" fill="#000000" stroke="#0000FF"/>
<path d="M334.9999999999987 414.99999999999755 L319.9999999999987 414.99999999999744
" fill="#000000" stroke="#FF0000"/>
<path d="M319.9999999999987 414.99999999999744 L304.9999999999987 414.9999999999973
" fill="#000000" stroke="#00FF00"/>
<path d="M304.9999999999987 414.9999999999973 L304.9999999999987 399.9999999999973
" fill="#000000" stroke="#00FF00"/>
<path d="M304.9999999999987 399.9999999999973 L304.9999999999987 384.9999999999973
" fill="#000000" stroke="#0000FF"/>
<path d="M304.9999999999987 384.9999999999973 L304.9999999999987 369.9999999999973
" fill="#000000" stroke="#0000FF"/>
<path d="M304.9999999999987 369.9999999999973 L319.9999999999987 369.99999999999727
" fill="#000000" stroke="#0000FF"/>
<path d="M319.9999999999987 369.99999999999727 L334.9999999999987 369.9999999999972
" fill="#000000" stroke="#0000FF"/>
<path d="M334.9999999999987 369.9999999999972 L334.99999999999886 384.9999999999972
" fill="#000000" stroke="#FF0000"/>
<path d="M334.99999999999886 384.9999999999972 L334.99999999999903 399.9999999999972
" fill="#000000" stroke="#00FF00"/>
<path d="M334.99999999999903 399.9999999999972 L319.99999999999903 399.99999999999744
" fill="#000000" stroke="#00FF00"/>
<path d="M319.99999999999903 399.99999999999744 L304.99999999999903 399.99999999999767
" fill="#000000" stroke="#0000FF"/>
<path d="M304.99999999999903 399.99999999999767 L289.99999999999903 399.9999999999979
" fill="#000000" stroke="#0000FF"/>
<path d="M289.99999999999903 399.9999999999979 L289.9999999999987 384.9999999999979
" fill="#000000" stroke="#0000FF"/>
<path d="M289.9999999999987 384.9999999999979 L289.99999999999835 369.9999999999979
" fill="#000000" stroke="#0000FF"/>
<path d="M289.99999999999835 369.9999999999979 L289.999999999998 354.9999999999979
" fill="#000000" stroke="#FF0000"/>
<path d="M289.999999999998 354.9999999999979 L289.99999999999767 339.9999999999979
" fill="#000000" stroke="#00FF00"/>
<path d="M289.99999999999767 339.9999999999979 L304.99999999999767 339.9999999999975
" fill="#000000" stroke="#00FF00"/>
<path d="M304.99999999999767 339.9999999999975 L319.99999999999767 339.9999999999971
" fill="#000000" stroke="#0000FF"/>
<path d="M319.99999999999767 339.9999999999971 L334.99999999999767 339.9999999999967
" fill="#000000" stroke="#0000FF"/>
<path d="M334.99999999999767 339.9999999999967 L334.9999999999981 354.9999999999967
" fill="#000000" stroke="#0000FF"/>
<path d="M334.9999999999981 354.9999999999967 L334.9999999999986 369.9999999999967
" fill="#000000" stroke="#0000FF"/>
<path d="M334.9999999999986 369.9999999999967 L334.99999999999903 384.9999999999967
" fill="#000000" stroke="#FF0000"/>
<path d="M334.99999999999903 384.9999999999967 L334.9999999999995 399.9999999999967
" fill="#000000" stroke="#00FF00"/>
<path d="M334.9999999999995 399.9999999999967 L319.9999999999995 399.99999999999727
" fill="#000000" stroke="#00FF00"/>
<path d="M319.9999999999995 399.99999999999727 L304.9999999999995 399.99999999999784
" fill="#000000" stroke="#0000FF"/>
<path d="M304.9999999999995 399.99999999999784 L289.9999999999995 399.9999999999984
" fill="#000000" stroke="#0000FF"/>
<path d="M289.9999999999995 399.9999999999984 L289.99999999999886 384.9999999999984
" fill="#000000" stroke="#0000FF"/>
<path d="M289.99999999999886 384.9999999999984 L289.99999999999823 369.9999999999984
" fill="#000000" stroke="#0000FF"/>
<path d="M289.99999999999823 369.9999999999984 L304.99999999999823 369.99999999999767
" fill="#000000" stroke="#FF0000"/>
<path d="M304.99999999999823 369.99999999999767 L319.99999999999823 369.99999999999693
" fill="#000000" stroke="#00FF00"/>
<path d="M319.99999999999823 369.99999999999693 L319.99999999999903 384.99999999999693
" fill="#000000" stroke="#00FF00"/>
<path d="M319.99999999999903 384.99999999999693 L319.99999999999983 399.99999999999693
" fill="#000000" stroke="#0000FF"/>
<path d="M319.99999999999983 399.99999999999693 L320.0000000000006 414.99999999999693
" fill="#000000" stroke="#0000FF"/>
<path d="M320.0000000000006 414.99999999999693 L305.0000000000006 414.99999999999784
" fill="#000000" stroke="#0000FF"/>
<path d="M305.0000000000006 414.99999999999784 L290.0000000000006 414.99999999999875
" fill="#000000" stroke="#0000FF"/>
<path d="M290.0000000000006 414.99999999999875 L275.0000000000006 414.99999999999966
" fill="#000000" stroke="#FF0000"/>
<path d="M275.0000000000006 414.99999999999966 L260.0000000000006 415.00000000000057
" fill="#000000" stroke="#00FF00"/>
<path d="M260.0000000000006 415.00000000000057 L259.99999999999966 400.00000000000057
" fill="#000000" stroke="#00FF00"/>
<path d="M259.99999999999966 400.00000000000057 L259.9999999999987 385.00000000000057
" fill="#000000" stroke="#0000FF"/>
<path d="M259.9999999999987 385.00000000000057 L259.9999999999977 370.00000000000057
" fill="#000000" stroke="#0000FF"/>
<path d="M259.9999999999977 370.00000000000057 L274.9999999999977 369.99999999999954
" fill="#000000" stroke="#0000FF"/>
<path d="M274.9999999999977 369.99999999999954 L289.9999999999977 369.9999999999985
" fill="#000000" stroke="#0000FF"/>
<path d="M289.9999999999977 369.9999999999985 L304.9999999999977 369.9999999999975
" fill="#000000" stroke="#FF0000"/>
<path d="M304.9999999999977 369.9999999999975 L319.9999999999977 369.9999999999965
" fill="#000000" stroke="#00FF00"/>
<path d="M319.9999999999977 369.9999999999965 L319.99999999999886 384.9999999999965
" fill="#000000" stroke="#00FF00"/>
<path d="M319.99999999999886 384.9999999999965 L320 399.9999999999965
" fill="#000000" stroke="#0000FF"/>
<path d="M320 399.9999999999965 L320.00000000000113 414.9999999999965
" fill="#000000" stroke="#0000FF"/>
<path d="M320.00000000000113 414.9999999999965 L305.00000000000113 414.99999999999767
" fill="#000000" stroke="#0000FF"/>
<path d="M305.00000000000113 414.99999999999767 L290.00000000000113 414.99999999999886
" fill="#000000" stroke="#0000FF"/>
<path d="M290.00000000000113 414.99999999999886 L275.00000000000113 415.00000000000005
" fill="#000000" stroke="#FF0000"/>
<path d="M275.00000000000113 415.00000000000005 L260.00000000000113 415.00000000000125
" fill="#000000" stroke="#00FF00"/>
<path d="M260.00000000000113 415.00000000000125 L259.99999999999983 400.00000000000125
" fill="#000000" stroke="#00FF00"/>
<path d="M259.99999999999983 400.00000000000125 L259.9999999999985 385.00000000000125
" fill="#000000" stroke="#0000FF"/>
<path d="M259.9999999999985 385.00000000000125 L259.9999999999972 370.00000000000125
" fill="#000000" stroke="#0000FF"/>
<path d="M259.9999999999972 370.00000000000125 L274.9999999999972 369.9999999999999
" fill="#000000" stroke="#0000FF"/>
<path d="M274.9999999999972 369.9999999999999 L289.9999999999972 369.9999999999985
" fill="#000000" stroke="#0000FF"/>
<path d="M289.9999999999972 369.9999999999985 L289.99999999999863 384.9999999999985
" fill="#000000" stroke="#FF0000"/>
<path d="M289.99999999999863 384.9999999999985 L290.00000000000005 399.9999999999985
" fill="#000000" stroke="#00FF00"/>
<path d="M290.00000000000005 399.9999999999985 L275.00000000000005 400.00000000000005
" fill="#000000" stroke="#00FF00"/>
<path d="M275.00000000000005 400.00000000000005 L260.00000000000005 400.0000000000016
" fill="#000000" stroke="#0000FF"/>
<path d="M260.00000000000005 400.0000000000016 L245.00000000000006 400.0000000000031
" fill="#000000" stroke="#0000FF"/>
<path d="M245.00000000000006 400.0000000000031 L244.99999999999844 385.0000000000031
" fill="#000000" stroke="#0000FF"/>
<path d="M244.99999999999844 385.0000000000031 L244.99999999999682 370.0000000000031
" fill="#000000" stroke="#0000FF"/>
<path d="M244.99999999999682 370.0000000000031 L244.9999999999952 355.0000000000031
" fill="#000000" stroke="#FF0000"/>
<path d="M244.9999999999952 355.0000000000031 L244.99999999999358 340.0000000000031
" fill="#000000" stroke="#00FF00"/>
<path d="M244.99999999999358 340.0000000000031 L259.9999999999936 340.0000000000014
" fill="#000000" stroke="#00FF00"/>
<path d="M259.9999999999936 340.0000000000014 L274.9999999999936 339.9999999999997
" fill="#000000" stroke="#0000FF"/>
<path d="M274.9999999999936 339.9999999999997 L289.9999999999936 339.999999999998
" fill="#000000" stroke="#0000FF"/>
<path d="M289.9999999999936 339.999999999998 L289.99999999999534 354.999999999998
" fill="#000000" stroke="#0000FF"/>
<path d="M289.99999999999534 354.999999999998 L289.9999999999971 369.999999999998
" fill="#000000" stroke="#0000FF"/>
<path d="M289.9999999999971 369.999999999998 L289.99999999999886 384.999999999998
" fill="#000000" stroke="#FF0000"/>
<path d="M289.99999999999886 384.999999999998 L290.0000000000006 399.999999999998
" fill="#000000" stroke="#00FF00"/>
<path d="M290.0000000000006 399.999999999998 L275.0000000000006 399.9999999999999
" fill="#000000" stroke="#00FF00"/>
<path d="M275.0000000000006 399.9999999999999 L260.0000000000006 400.00000000000176
" fill="#000000" stroke="#0000FF"/>
<path d="M260.0000000000006 400.00000000000176 L245.00000000000062 400.00000000000363
" fill="#000000" stroke="#0000FF"/>
<path d="M245.00000000000062 400.00000000000363 L244.9999999999987 385.00000000000363
" fill="#000000" stroke="#0000FF"/>
<path d="M244.9999999999987 385.00000000000363 L244.99999999999676 370.00000000000363
" fill="#000000" stroke="#0000FF"/>
<path d="M244.99999999999676 370.00000000000363 L259.99999999999676 370.00000000000165
" fill="#000000" stroke="#FF0000"/>
<path d="M259.99999999999676 370.00000000000165 L274.99999999999676 369.99999999999966
" fill="#000000" stroke="#00FF00"/>
<path d="M274.99999999999676 369.99999999999966 L274.99999999999886 384.99999999999966
" fill="#000000" stroke="#00FF00"/>
<path d="M274.99999999999886 384.99999999999966 L275.00000000000096 399.99999999999966
" fill="#000000" stroke="#0000FF"/>
<path d="M275.00000000000096 399.99999999999966 L275.00000000000307 414.99999999999966
" fill="#000000" stroke="#0000FF"/>
<path d="M275.00000000000307 414.99999999999966 L260.00000000000307 415.0000000000018
" fill="#000000" stroke="#0000FF"/>
<path d="M260.00000000000307 415.0000000000018 L245.00000000000307 415.000000000004
" fill="#000000" stroke="#0000FF"/>
<path d="M245.00000000000307 415.000000000004 L230.00000000000307 415.00000000000614
" fill="#000000" stroke="#FF0000"/>
<path d="M230.00000000000307 415.00000000000614 L215.00000000000307 415.0000000000083
" fill="#000000" stroke="#00FF00"/>
<path d="M215.00000000000307 415.0000000000083 L215.00000000000082 400.0000000000083
" fill="#000000" stroke="#00FF00"/>
<path d="M215.00000000000082 400.0000000000083 L214.99999999999858 385.0000000000083
" fill="#000000" stroke="#0000FF"/>
<path d="M214.99999999999858 385.0000000000083 L214.99999999999633 370.0000000000083
" fill="#000000" stroke="#0000FF"/>
<path d="M214.99999999999633 370.0000000000083 L229.99999999999633 370.00000000000597
" fill="#000000" stroke="#0000FF"/>
<path d="M229.99999999999633 370.00000000000597 L244.99999999999633 370.00000000000363
" fill="#000000" stroke="#0000FF"/>
<path d="M244.99999999999633 370.00000000000363 L244.99999999999875 385.00000000000363
" fill="#000000" stroke="#FF0000"/>
<path d="M244.99999999999875 385.00000000000363 L245.00000000000116 400.00000000000363
" fill="#000000" stroke="#00FF00"/>
<path d="M245.00000000000116 400.00000000000363 L230.00000000000116 400.00000000000614
" fill="#000000" stroke="#00FF00"/>
<path d="M230.00000000000116 400.00000000000614 L215.00000000000116 400.00000000000864
" fill="#000000" stroke="#0000FF"/>
<path d="M215.00000000000116 400.00000000000864 L200.00000000000116 400.00000000001114
" fill="#000000" stroke="#0000FF"/>
<path d="M200.00000000000116 400.00000000001114 L199.9999999999988 385.00000000001114
" fill="#000000" stroke="#0000FF"/>
<path d="M199.9999999999988 385.00000000001114 L199.99999999999645 370.00000000001114
" fill="#000000" stroke="#0000FF"/>
<path d="M199.99999999999645 370.00000000001114 L199.9999999999941 355.00000000001114
" fill="#000000" stroke="#FF0000"/>
<path d="M199.9999999999941 355.00000000001114 L199.99999999999173 340.00000000001114
" fill="#000000" stroke="#00FF00"/>
<path d="M199.99999999999173 340.00000000001114 L214.99999999999173 340.0000000000087
" fill="#000000" stroke="#00FF00"/>
<path d="M214.99999999999173 340.0000000000087 L229.99999999999173 340.00000000000625
" fill="#000000" stroke="#0000FF"/>
<path d="M229.99999999999173 340.00000000000625 L244.99999999999173 340.0000000000038
" fill="#000000" stroke="#0000FF"/>
<path d="M244.99999999999173 340.0000000000038 L244.99999999999426 355.0000000000038
" fill="#000000" stroke="#0000FF"/>
<path d="M244.99999999999426 355.0000000000038 L244.9999999999968 370.0000000000038
" fill="#000000" stroke="#0000FF"/>
<path d="M244.9999999999968 370.0000000000038 L229.9999999999968 370.0000000000064
" fill="#000000" stroke="#FF0000"/>
<path d="M229.9999999999968 370.0000000000064 L214.9999999999968 370.00000000000903
" fill="#000000" stroke="#00FF00"/>
<path d="M214.9999999999968 370.00000000000903 L214.9999999999941 355.00000000000903
" fill="#000000" stroke="#00FF00"/>
<path d="M214.9999999999941 355.00000000000903 L214.9999999999914 340.00000000000903
" fill="#000000" stroke="#0000FF"/>
<path d="M214.9999999999914 340.00000000000903 L214.9999999999887 325.00000000000903
" fill="#000000" stroke="#0000FF"/>
<path d="M214.9999999999887 325.00000000000903 L229.9999999999887 325.00000000000625
" fill="#000000" stroke="#0000FF"/>
<path d="M229.9999999999887 325.00000000000625 L244.9999999999887 325.00000000000346
" fill="#000000" stroke="#0000FF"/>
<path d="M244.9999999999887 325.00000000000346 L259.9999999999887 325.0000000000007
" fill="#000000" stroke="#FF0000"/>
<path d="M259.9999999999887 325.0000000000007 L274.9999999999887 324.9999999999979
" fill="#000000" stroke="#00FF00"/>
<path d="M274.9999999999887 324.9999999999979 L274.99999999999153 339.9999999999979
" fill="#000000" stroke="#00FF00"/>
<path d="M274.99999999999153 339.9999999999979 L274.9999999999944 354.9999999999979
" fill="#000000" stroke="#0000FF"/>
<path d="M274.9999999999944 354.9999999999979 L274.9999999999972 369.9999999999979
" fill="#000000" stroke="#0000FF"/>
<path d="M274.9999999999972 369.9999999999979 L259.9999999999972 370.00000000000085
" fill="#000000" stroke="#0000FF"/>
<path d="M259.9999999999972 370.00000000000085 L244.99999999999721 370.0000000000038
" fill="#000000" stroke="#0000FF"/>
<path d="M244.99999999999721 370.0000000000038 L229.99999999999721 370.00000000000676
" fill="#000000" stroke="#FF0000"/>
<path d="M229.99999999999721 370.00000000000676 L214.99999999999721 370.0000000000097
" fill="#000000" stroke="#00FF00"/>
<path d="M214.99999999999721 370.0000000000097 L214.9999999999942 355.0000000000097
" fill="#000000" stroke="#00FF00"/>
<path d="M214.9999999999942 355.0000000000097 L214.9999999999912 340.0000000000097
" fill="#000000" stroke="#0000FF"/>
<path d="M214.9999999999912 340.0000000000097 L214.99999999998818 325.0000000000097
" fill="#000000" stroke="#0000FF"/>
<path d="M214.99999999998818 325.0000000000097 L229.99999999998818 325.00000000000665
" fill="#000000" stroke="#0000FF"/>
<path d="M229.99999999998818 325.00000000000665 L244.99999999998818 325.0000000000036
" fill="#000000" stroke="#0000FF"/>
<path d="M244.99999999998818 325.0000000000036 L244.99999999999136 340.0000000000036
" fill="#000000" stroke="#FF0000"/>
<path d="M244.99999999999136 340.0000000000036 L244.99999999999454 355.0000000000036
" fill="#000000" stroke="#00FF00"/>
<path d="M244.99999999999454 355.0000000000036 L229.99999999999454 355.0000000000068
" fill="#000000" stroke="#00FF00"/>
<path d="M229.99999999999454 355.0000000000068 L214.99999999999454 355.00000000001006
" fill="#000000" stroke="#0000FF"/>
<path d="M214.99999999999454 355.00000000001006 L199.99999999999454 355.0000000000133
" fill="#000000" stroke="#0000FF"/>
<path d="M199.99999999999454 355.0000000000133 L199.99999999999122 340.0000000000133
" fill="#000000" stroke="#0000FF"/>
<path d="M199.99999999999122 340.0000000000133 L199.9999999999879 325.0000000000133
" fill="#000000" stroke="#0000FF"/>
<path d="M199.9999999999879 325.0000000000133 L199.99999999998457 310.0000000000133
" fill="#000000" stroke="#FF0000"/>
<path d="M199.99999999998457 310.0000000000133 L199.99999999998124 295.0000000000133
" fill="#000000" stroke="#00FF00"/>
<path d="M199.99999999998124 295.0000000000133 L214.99999999998124 295.0000000000099
" fill="#000000" stroke="#00FF00"/>
<path d="M214.99999999998124 295.0000000000099 L229.99999999998124 295.0000000000065
" fill="#000000" stroke="#0000FF"/>
<path d="M229.99999999998124 295.0000000000065 L244.99999999998124 295.00000000000307
" fill="#000000" stroke="#0000FF"/>
<path d="M244.99999999998124 295.00000000000307 L244.99999999998474 310.00000000000307
" fill="#000000" stroke="#0000FF"/>
<path d="M244.99999999998474 310.00000000000307 L244.99999999998823 325.00000000000307
" fill="#000000" stroke="#0000FF"/>
<path d="M244.99999999998823 325.00000000000307 L244.99999999999173 340.00000000000307
" fill="#000000" stroke="#FF0000"/>
<path d="M244.99999999999173 340.00000000000307 L244.99999999999522 355.00000000000307
" fill="#000000" stroke="#00FF00"/>
<path d="M244.99999999999522 355.00000000000307 L229.99999999999522 355.00000000000665
" fill="#000000" stroke="#00FF00"/>
<path d="M229.99999999999522 355.00000000000665 L214.99999999999522 355.00000000001023
" fill="#000000" stroke="#0000FF"/>
<path d="M214.99999999999522 355.00000000001023 L199.99999999999522 355.0000000000138
" fill="#000000" stroke="#0000FF"/>
<path d="M199.99999999999522 355.0000000000138 L199.99999999999156 340.0000000000138
" fill="#000000" stroke="#0000FF"/>
<path d="M199.99999999999156 340.0000000000138 L199.9999999999879 325.0000000000138
" fill="#000000" stroke="#0000FF"/>
<path d="M199.9999999999879 325.0000000000138 L199.99999999998423 310.0000000000138
" fill="#000000" stroke="#FF0000"/>
<path d="M199.99999999998423 310.0000000000138 L199.99999999998056 295.0000000000138
" fill="#000000" stroke="#00FF00"/>
<path d="M199.99999999998056 295.0000000000138 L214.99999999998056 295.00000000001006
" fill="#000000" stroke="#00FF00"/>
<path d="M214.99999999998056 295.00000000001006 L229.99999999998056 295.0000000000063
" fill="#000000" stroke="#0000FF"/>
<path d="M229.99999999998056 295.0000000000063 L244.99999999998056 295.00000000000255
" fill="#000000" stroke="#0000FF"/>
<path d="M244.99999999998056 295.00000000000255 L244.99999999998437 310.00000000000255
" fill="#000000" stroke="#0000FF"/>
<path d="M244.99999999998437 310.00000000000255 L244.99999999998818 325.00000000000255
" fill="#000000" stroke="#0000FF"/>
<path d="M244.99999999998818 325.00000000000255 L229.99999999998818 325.0000000000065
" fill="#000000" stroke="#FF0000"/>
<path d="M229.99999999998818 325.0000000000065 L214.99999999998818 325.0000000000104
" fill="#000000" stroke="#00FF00"/>
<path d="M214.99999999998818 325.0000000000104 L214.9999999999842 310.0000000000104
" fill="#000000" stroke="#00FF00"/>
<path d="M214.9999999999842 310.0000000000104 L214.99999999998022 295.0000000000104
" fill="#000000" stroke="#0000FF"/>
<path d="M214.99999999998022 295.0000000000104 L214.99999999997624 280.0000000000104
" fill="#000000" stroke="#0000FF"/>
<path d="M214.99999999997624 280.0000000000104 L229.99999999997624 280.0000000000063
" fill="#000000" stroke="#0000FF"/>
<path d="M229.99999999997624 280.0000000000063 L244.99999999997624 280.0000000000022
" fill="#000000" stroke="#0000FF"/>
<path d="M244.99999999997624 280.0000000000022 L259.99999999997624 279.9999999999981
" fill="#000000" stroke="#FF0000"/>
<path d="M259.99999999997624 279.9999999999981 L274.99999999997624 279.99999999999403
" fill="#000000" stroke="#00FF00"/>
<path d="M274.99999999997624 279.99999999999403 L274.9999999999804 294.99999999999403
" fill="#000000" stroke="#00FF00"/>
<path d="M274.9999999999804 294.99999999999403 L274.99999999998454 309.99999999999403
" fill="#000000" stroke="#0000FF"/>
<path d="M274.99999999998454 309.99999999999403 L274.9999999999887 324.99999999999403
" fill="#000000" stroke="#0000FF"/>
<path d="M274.9999999999887 324.99999999999403 L259.9999999999887 324.99999999999823
" fill="#000000" stroke="#0000FF"/>
<path d="M259.9999999999887 324.99999999999823 L244.9999999999887 325.00000000000244
" fill="#000000" stroke="#0000FF"/>
<path d="M244.9999999999887 325.00000000000244 L229.9999999999887 325.00000000000665
" fill="#000000" stroke="#FF0000"/>
<path d="M229.9999999999887 325.00000000000665 L214.9999999999887 325.00000000001085
" fill="#000000" stroke="#00FF00"/>
<path d="M214.9999999999887 325.00000000001085 L214.99999999998437 310.00000000001085
" fill="#000000" stroke="#00FF00"/>
<path d="M214.99999999998437 310.00000000001085 L214.99999999998005 295.00000000001085
" fill="#000000" stroke="#0000FF"/>
<path d="M214.99999999998005 295.00000000001085 L214.99999999997573 280.00000000001085
" fill="#000000" stroke="#0000FF"/>
<path d="M214.99999999997573 280.00000000001085 L229.99999999997573 280.0000000000065
" fill="#000000" stroke="#0000FF"/>
<path d="M229.99999999997573 280.0000000000065 L244.99999999997573 280.0000000000021
" fill="#000000" stroke="#0000FF"/>
<path d="M244.99999999997573 280.0000000000021 L244.9999999999802 295.0000000000021
" fill="#000000" stroke="#FF0000"/>
<path d="M244.9999999999802 295.0000000000021 L244.99999999998465 310.0000000000021
" fill="#000000" stroke="#00FF00"/>
<path d="M244.99999999998465 310.0000000000021 L229.99999999998465 310.00000000000665
" fill="#000000" stroke="#00FF00"/>
<path d="M229.99999999998465 310.00000000000665 L214.99999999998465 310.0000000000112
" fill="#000000" stroke="#0000FF"/>
<path d="M214.99999999998465 310.0000000000112 L199.99999999998465 310.00000000001574
" fill="#000000" stroke="#0000FF"/>
<path d="M199.99999999998465 310.00000000001574 L199.99999999998002 295.00000000001574
" fill="#000000" stroke="#0000FF"/>
<path d="M199.99999999998002 295.00000000001574 L199.9999999999754 280.00000000001574
" fill="#000000" stroke="#0000FF"/>
<path d="M199.9999999999754 280.00000000001574 L199.99999999997075 265.00000000001574
" fill="#000000" stroke="#FF0000"/>
<path d="M199.99999999997075 265.00000000001574 L199.99999999996612 250.00000000001574
" fill="#000000" stroke="#00FF00"/>
<path d="M199.99999999996612 250.00000000001574 L214.99999999996612 250.00000000001103
" fill="#000000" stroke="#00FF00"/>
<path d="M214.99999999996612 250.00000000001103 L229.99999999996612 250.0000000000063
" fill="#000000" stroke="#0000FF"/>
<path d="M229.99999999996612 250.0000000000063 L244.99999999996612 250.0000000000016
" fill="#000000" stroke="#0000FF"/>
<path d="M244.99999999996612 250.0000000000016 L244.99999999997092 265.0000000000016
" fill="#000000" stroke="#0000FF"/>
<path d="M244.99999999997092 265.0000000000016 L244.99999999997573 280.0000000000016
" fill="#000000" stroke="#0000FF"/>
<path d="M244.99999999997573 280.0000000000016 " fill="#000000" stroke="#0000FF"/>
</g>
</svg>
